<svg xmlns="http://www.w3.org/2000/svg" xmlns:xlink="http://www.w3.org/1999/xlink" viewBox="0 0 1216 520">
  <g id="Element" class="g_to_interact_with" style="isolation: isolate">
    <path d="M486,158c8.22.91,14.89,6.33,22,9,23.31,8.76,46.07,15.53,67,26,4.92,2.46,9.79,1.65,15,4,20.08,9.05,42.91,19.92,64,28,5.55,2.13,10.78,1.24,16,4s8,9.62,14,12c29.46,11.77,58.73,21.09,88,32,34.43,12.84,92,21.77,100,59-11.74.68-18.89,8.82-28,12-7.53,2.63-13,1.29-20,4-5.61,2.16-10.79,7.85-16,10-6.07,2.5-11.49,1.91-17,5-2,1.12-4,4.87-6,6-5.41,3.06-10.5,3.07-16,6-2.92,1.55-5.81,5.69-9,7l-7,1c-2.2,1.11-4.94,5-7,6l-17,4c-5.71,2.73-12,7.17-19,9-10.37,2.7-28.55-.12-36-2-14.3-3.61-36.23,1.47-50-2H603c-8.21,0-19.42-3.25-25-2-11.47,2.58-37.43,2.49-48-2-1.2-.51-3.62-3.27-5-4-8.3-4.35-17-6.2-25-11-2.76-1.65-5.4-5.25-8-7-2.26-1.51-5-1.27-7-3-2.69-2.36-4.72-6.19-8-8-4.85-2.67-8.66-.86-15-3-8.52-2.87-16.21-11.37-24-14l-14-1a71.85,71.85,0,0,1-12-6l-5-6-9-1c-8.75-2.41-19.47-5.19-28-9-19.59-8.76-39.55-15.83-60-24-8.14-3.25-15.24-12-23-16-4.27-2.18-8.74-1.1-12-4-3.84-3.42-5.49-9.23-9-13,6.27-26.85,39.55-31.94,64-41,17.45-6.46,35.85-14.9,52-22l8-1c1.7-.65,4.3-3.35,6-4,7.13-2.72,12.63-2.27,20-5,11.82-4.39,25.68-11.67,36-18C461.85,167,479.1,166.92,486,158Z" fill-rule="evenodd"/>
  </g>
  <g id="Element-2" class="g_to_interact_with" data-name="Element" style="isolation: isolate">
    <path d="M508,24c25-.51,32.49,7.88,45,19,2.12,1.89,5.49,2.59,7,5l3,16c11.84,5.61,24.7,12.5,34,21,2.38,2.18,3.71,5.71,6,8,4.34,4.34,9.64,7.68,14,12,.93.92,1,3.16,2,4,2.68,2.35,5.5,1.11,9,3,4,2.14,6,8.58,10,11,9,5.47,18.91,6.56,28,12,4.79,2.86,7.83,9.2,14,11,9.86,2.88,18.37-.84,26,3,5.32,2.68,14.45,10.22,18,15,3.25,4.38,5.28,10.22,10,13,6.85,4,17.74,2.08,26,5,3.18,1.12,6.13,5.54,9,7l7,1c5.92,2.46,7.41,9.51,12,13,5.17,3.93,15.58,5.06,22,8,5.68,2.61,9,9,14,12,2.84,1.7,18.73,6.17,22,7l16,1c7.56,3.32,11.43,11.84,18,16,5.53,3.5,11.71,3.16,18,6,5.42,2.45,11.66,7.35,17,10,11.67,5.79,25.43,5.35,39,9,15.37,4.13,32.83,8.27,48,12,12.63,3.1,28.26,1.14,40,4h18c13.67,3.37,38.64,3.58,48,11,.75,1.07.6.95,1,3-.8,1-.35.27-1,2-4.17.7-6.3,3-10,4-6.68,1.83-12.63,2.67-18,4h-12c-4.68,1.35-12.38,4.62-18,6-11.85,2.9-39.46-4.44-48,1-4.51,1.44-5.13,4.16-8,7,.51,6.66,1.42,9.33,1,16a25,25,0,0,0-5,4c-20.76.1-27.11-14.33-42-20-5.85-2.23-11-.29-18-2-20.6-5.05-35.4,3.17-56,6-9.36-9.69-16.79-24.46-29-31-23.92-12.81-54.92-20.37-81-30-7.68-2.83-14.55-2.67-22-6-37-16.49-79.2-28.24-115-46-5.3-2.63-11.21-1.44-17-4-33.5-14.79-69.11-30.8-104-44-6.85-2.59-13.21-1.86-20-5-1-.48-3-3.55-4-4h-6c-1.67-.74-3.48-4.12-5-5-5.63-3.26-10.68-3.13-17-6-2.65-1.2-6.39-4.7-9-6-11.42-5.67-25.94-5.94-36-13v-2c2.89-1.94,3.59-4.77,6-7,5.14-4.76,10.27-5.41,17-9,4-2.13,7-8.34,11-11,9.77-6.51,23.33-11.73,30-21,5.69-7.91.87-24.28,5-34,1.94-4.57,15.28-16.87,20-19C501.79,25.29,505,26.14,508,24Z" fill-rule="evenodd"/>
  </g>
  <g id="Element-3" class="g_to_interact_with" data-name="Element" style="isolation: isolate">
    <path d="M533,394c-9.64.05-20.18-.35-27-2-13.15-3.18-31.13.63-42-2H447c-11.79,0-24.7-.24-35-1-9.31-13.67-36-30.1-54-35-17.49-4.76-43.28-2-64-2H168v-6H158c-3.8-9.43-10.66-8.13-19-13-3.3-1.93-12.51-22.16-13-27,4.51-6.17,5.94-13.56,11-19,3.26-3.52,8.38-4.78,12-8,3.08-2.74,5-7.22,8-10,10.57-9.67,23.29-16.46,34-26,3.08-2.74,5-7.22,8-10,7.54-6.9,16.41-11.07,25-17l6-7c3.83-2,12-2.93,15-2,4-1.92,9-6.23,13-8,11.41-5,24-3.71,36-8,3-1.09,9.33-2.17,13-4,2.18-1.09,5-5,7-6l10-1c3.75-1.17,7.43-3.15,12-5,2.92-1.18,5.6-4.63,8-6,3.22-1.84,6.63-1.33,10-3a242.77,242.77,0,0,0,31-19c7.19-5.1,15.46-14.95,25-17,5.64,3.76,14.57,3.09,21,6,17.24,7.79,38.7,14.36,55,24v2c-10,.45-15.15,5.86-22,9l-9,2c-10.25,5.14-22.65,11.27-33,16l-9,2c-8.14,3.93-18.75,8.38-27,12l-11,2c-19.53,9.09-41.65,17.3-61,26-16.33,7.34-45.71,10.13-46,33l3,8c5.14,2.37,9.38,6.67,14,9l11,2c2.93,1.52,5.88,6.35,9,8,4.84,2.56,9.82,1.65,15,4,2.28,1,5.32,4.14,8,5h6c2.05.77,4.17,4.14,6,5l8,1c5.33,2.14,12.4,6.86,18,9,3.94,1.51,6.07.46,10,2,17.36,6.82,36.59,17.35,54,24,5.94,2.27,11.21.48,18,3,3.93,1.46,7,7,11,9a98.29,98.29,0,0,0,11,5l11,1c2.85,1.57,5,6.27,8,8,14.78,8.46,28.89,16.76,44,24Z" fill-rule="evenodd"/>
  </g>
  <g id="Element-4" class="g_to_interact_with" data-name="Element" style="isolation: isolate">
    <path d="M74,110c12.81-.2,10.65-5.48,18-8h18c8.51-2,23.33-1.32,32,3,3.44,1.72,20.17,13.17,23,16s3.41,7.1,6,10c3.35,3.77,8.67,6.22,12,10,2.66,3,2.73,7.53,5,11a79,79,0,0,0,20,20c11.78,7.78,35.73,13.92,52,10,13-3.12,23.8,1.05,36-2,27.56-6.89,54.84-18.46,71-37,6.43-7.38,5.38-33.91,9-45,.55-1.67,3.38-4.34,4-6,3.52-9.41,3.46-16.6,7-26,3.16-8.38,10.09-17.12,14-25,4.14-8.34,5.12-15.89,10-23,2.71-3.95,7.68-6.58,11-10,12,.79,36.69,18,46,24,5.59,3.6,11.64,3.11,14,10-8.51,11.68-2.33,29.06-6,37-13.13,17.18-35.8,26.81-54,39-6,4-10.31,11-16,15-24.1,16.8-50.15,33.71-78,46l-12,2c-2.86,1-5.67,4.86-8,6l-12,2c-3.68,1.32-9.84,3.89-14,5-8.26,2.21-19.68,1.56-27,5-8.5,4-14,10.94-21,16-8.74,6.33-19,10.85-27,18-3.08,2.74-5,7.22-8,10-20,18.33-74.2,43-66,80,6.25,2.6,10.42,9.43,17,12,17.22,6.72,35.28,8.74,51,16-.91,1.08.08.08-1,1-4.34,2-34.81.34-44,0-3.59-.13-5.66-1.41-8-2H110c-26.84,0-52.46-.32-74-5l-1-3c-3.85-6,2.91-38.9,3-49,.15-16.15,4.51-33.28,8-47,2-7.68.06-12.95,2-20,5.31-19.29,9.14-42.48,14-62,2.39-9.61-2.46-17.13-5-22-8.24-15.81-19.8-28.57-26-46s1.31-47.47,15-49c3.49-2.35,9.9-.43,14,0,3.11,4.58,8.63,7.72,11,13C76.34,71.89,74,93.58,74,110Z" fill-rule="evenodd"/>
    <path d="M68,132c.49-22-1.06-68-13-77-1.47-1.12-3-2.09-4-1-23.53,11.33-2.18,53.78,6,66,2.75,4.1,3.38,8.84,8,11C66.07,131.75,66,131.6,68,132Z" fill-rule="evenodd"/>
    <path d="M1102,298h2v2h-2Z" fill-rule="evenodd"/>
    <path d="M1162,360c-6.71.52-7.51,4.17-12,6-10,4.1-18.45,2.95-30,6-5.91,1.56-11.91,4.84-18,6s-19.24-2.23-28,0c-28.42,7.24-65.33,6.65-94,14H954c-5.32,1.34-16.69,2.64-22,4H916c-1.65.54-4.35,3.45-6,4-3.93,1.3-11,1.24-14,2-7.9,2-19.24-.54-26,1l-22-1c-13.08,3.28-28.61-2.25-43,1-8.91,2-22.4,1-33,1-20.52,0-43.08.29-62-1v-2c6.38-1.08,9.13-5.78,14-8,13-5.92,25.5-7.54,38-14,4.92-2.54,10.64-7.62,16-10,40.64-18,80.94-37.33,128-49h14c16.91,0,27.93,3.39,38,10,9.2,6,19.4,17.69,34,15,4.78-9.41,2.32-10.45,2-23,3.5-1.13,5.52-4,9-5l36,1c11.4-2.6,25.73-4.2,37-7,15.37-3.83,24.85-.6,32-12C1128.76,308.25,1160.1,333.49,1162,360Z" fill-rule="evenodd"/>
  </g>
  <g id="Sole" class="g_to_interact_with" style="isolation: isolate">
    <path d="M34,344c12.84,2.56,24.84,2.5,38,6h85c29.05,4.75,67.55,2,100,2h91c14.73,3.73,28.26,8,40,15,9.68,5.8,16.53,19.45,28,23h48c24.58,6.11,57.76-.45,82,6h38c10.26,2.55,27.49-1.1,40,2,13.81,3.42,35.6-1.56,50,2,17.18,4.25,43.45,2,64,2h54c3.14-.79,6-2,11-2,17.78-.1,40.51,1.86,55-2h23c16.91,0,32-.52,45-4h24c12.38-3.12,30.09-2.82,42-6h14c20.23-5.1,46.37-4.74,66-10h12c20.2-5.14,43.84-7.18,64-14,6.06-2.05,11-7.22,18-8,3.8,3.82,6,3.8,6,12,2.31,3.37.41,7.13,2,12,10.28,31.48-.6,49-23,61-44.82,23.94-108.92,30.68-163,45-11.89,3.15-23.35,3.24-34,6H940c-1.62.52-4.37,3.53-6,4l-12-1a97.59,97.59,0,0,1-16,3l-10-1c-.81.24-3.19,2.77-4,3l-9-1c-.73.22-2.51,2.82-3,3-4.83,1.82-8.47-2.95-12-2-.81.22-3.18,3.7-4,4l-10-1c-8.88.68-19.64.84-28,3H810c-17.59,0-40.32-2.68-56,1l-54-1c-3.92-1-11.5-3.59-18-2-9.52,2.33-15.45-1.88-27,0-2.89.47-6.64,3.32-11,2-1.55-.47-4.44-3.66-6-4-6-1.32-16.24,5.82-24,3-.53-.19-3-2.76-4-3-3.29-.82-6,1.5-8,2H574c-11.49,0-20.85-4.74-32-2-9.71,2.39-16.16-2.5-26,0-19.48,4.94-47.66,4-73,4H259c-13.08,0-29,.6-39-2H165c-18.37,0-39.82-2-55-6-12.85-3.36-24.37-.84-36-5-31-11.1-62.87-34.11-43-74-7-12.22.23-6.82-1-15-.34-2.27-4.51-4.66-4-8,.1-.65,2.83-3.34,3-4,1.31-5.19-3.94-7-5-10-1.73-4.94,1.52-27.68,3-30C28.44,347.49,31.16,346.87,34,344Z" fill-rule="evenodd"/>
  </g>
  <g id="Shadow_Billede" data-name="Shadow Billede">
    <image id="Shadow_Billede-2" data-name="Shadow Billede" width="1216" height="520" xlink:href="theroyalesneakers1.png"/>
  </g>
</svg>
